<svg xmlns="http://www.w3.org/2000/svg" viewBox="0 0 197.45 219.27"><defs><style>.cls-1{fill:#fff;}</style></defs><title>Asset 1</title><g id="Layer_2" data-name="Layer 2"><g id="Layer_1-2" data-name="Layer 1"><path class="cls-1" d="M138.79,152.77V124.1l58.66,47.65-58.52,47.52V190c-12.18,0-23.79-.12-35.4,0-12.21.16-24.28-.45-36.07-4.07C25.94,173.24-2.65,134.12.2,90,3.24,42.81,37.51,6.33,82.49.77c53.06-6.56,99.91,29.55,107,82.51.48,3.61.41,7.29.62,11.3H154.14c-.9-5.16-1.42-10.3-2.74-15.23-7.5-28.2-35-46.12-64.62-42.34C58.68,40.59,37,65.37,36.66,94.26c-.32,29.13,20.62,55.06,49.27,58.17C103.18,154.3,120.79,152.77,138.79,152.77Z"/></g></g></svg>