<svg id="Layer_1" data-name="Layer 1" xmlns="http://www.w3.org/2000/svg" viewBox="0 0 166.53 161.22"><defs><style>.cls-1{fill:#1aa093;}</style></defs><title>asl_logo</title><path class="cls-1" d="M33.19,96.22c0-27.8,0-54.1,0-80.4a54.84,54.84,0,0,1,.11-5.49A11.2,11.2,0,0,1,44.75,0a11.37,11.37,0,0,1,11.5,10.31,44,44,0,0,1,.08,4.5q0,47.75,0,95.49c0,17.09,10.64,27.78,27.72,27.86,10.67,0,21.33.07,32,0,16.29-.11,27.16-11.1,27.18-27.45q0-34.75,0-69.49c0-1.33-.06-2.67,0-4C143.66,30.63,148.6,26,155,26.16c6.22,0.13,11.2,4.7,11.22,11.08,0.1,26.33.65,52.68-.23,79-0.81,24.45-22.45,44.31-47.29,44.8-12.66.25-25.34,0.28-38,0A46.72,46.72,0,0,1,46.2,145.35C31.83,129.59,17.67,113.63,3.5,97.69c-4.74-5.33-4.61-12.16.06-16.56s12-4.15,16.93,1.06C24.48,86.39,28.27,90.78,33.19,96.22Z"/><path class="cls-1" d="M70.61,78.23c0-5.83-.06-11.65,0-17.48C70.73,53,75.38,48,82.37,48.1,89.19,48.15,93.78,53,93.84,60.47c0.1,12.15.12,24.3,0,36.45-0.08,7.38-4.91,12.25-11.68,12.18s-11.41-5-11.52-12.4C70.53,90.55,70.61,84.39,70.61,78.23Z"/><path class="cls-1" d="M128.62,78.57c0,6.16.08,12.32,0,18.47-0.13,7-4.8,11.91-11.31,12.06-6.72.15-11.79-4.81-11.86-12q-0.19-18.47,0-36.95c0.07-7.27,5-12.17,11.82-12,6.57,0.13,11.16,5,11.38,12,0,0.17,0,.33,0,0.5Q128.62,69.58,128.62,78.57Z"/></svg>